<svg width="65" height="32" viewBox="0 0 65 32" fill="none" xmlns="http://www.w3.org/2000/svg">
<path d="M32.6665 16C31.5665 16 30.6248 15.6083 29.8415 14.825C29.0582 14.0417 28.6665 13.1 28.6665 12C28.6665 10.9 29.0582 9.95833 29.8415 9.175C30.6248 8.39167 31.5665 8 32.6665 8C33.7665 8 34.7082 8.39167 35.4915 9.175C36.2748 9.95833 36.6665 10.9 36.6665 12C36.6665 13.1 36.2748 14.0417 35.4915 14.825C34.7082 15.6083 33.7665 16 32.6665 16ZM24.6665 24V21.2C24.6665 20.6333 24.8123 20.1125 25.104 19.6375C25.3957 19.1625 25.7832 18.8 26.2665 18.55C27.2998 18.0333 28.3498 17.6458 29.4165 17.3875C30.4832 17.1292 31.5665 17 32.6665 17C33.7665 17 34.8498 17.1292 35.9165 17.3875C36.9832 17.6458 38.0332 18.0333 39.0665 18.55C39.5498 18.8 39.9373 19.1625 40.229 19.6375C40.5207 20.1125 40.6665 20.6333 40.6665 21.2V24H24.6665ZM26.6665 22H38.6665V21.2C38.6665 21.0167 38.6207 20.85 38.529 20.7C38.4373 20.55 38.3165 20.4333 38.1665 20.35C37.2665 19.9 36.3582 19.5625 35.4415 19.3375C34.5248 19.1125 33.5998 19 32.6665 19C31.7332 19 30.8082 19.1125 29.8915 19.3375C28.9748 19.5625 28.0665 19.9 27.1665 20.35C27.0165 20.4333 26.8957 20.55 26.804 20.7C26.7123 20.85 26.6665 21.0167 26.6665 21.2V22ZM32.6665 14C33.2165 14 33.6873 13.8042 34.079 13.4125C34.4707 13.0208 34.6665 12.55 34.6665 12C34.6665 11.45 34.4707 10.9792 34.079 10.5875C33.6873 10.1958 33.2165 10 32.6665 10C32.1165 10 31.6457 10.1958 31.254 10.5875C30.8623 10.9792 30.6665 11.45 30.6665 12C30.6665 12.55 30.8623 13.0208 31.254 13.4125C31.6457 13.8042 32.1165 14 32.6665 14Z" fill="#878787"/>
</svg>
